/* XPM */
static char *laser_door[] = {
/* width height num_colors chars_per_pixel */
"80 42 3 1",
/* colors */
"R c #FF0000",
". c None",
"# c #000000",
/* pixels */
"RRRRRRRRRRRRRRRRRRRRRRRRRRRRRRRRRRRRRRRRRRRRRRRRRRRRRRRRRRRRRRRRRRRRRRRRRRRRRRRR",
"R........................R...........................R.........................R",
"R........................R...........................R.........................R",
"R........................R...........................R.........................R",
"R........................R...........................R.........................R",
"R........................R...........................R.........................R",
"R........................R...........................R.........................R",
"R........................R...........................R.........................R",
"R........................R...........................R.........................R",
"R........................R...........................R.........................R",
"RRRRRRRRRRRRRRRRRRRRRRRRRRRRRRRRRRRRRRRRRRRRRRRRRRRRRRRRRRRRRRRRRRRRRRRRRRRRRRRR",
"R........................R...........................R.........................R",
"R........................R...........................R.........................R",
"R........................R...........................R.........................R",
"R........................R...........................R.........................R",
"R........................R...........................R.........................R",
"R........................R...........................R.........................R",
"R........................R...........................R.........................R",
"R........................R...........................R.........................R",
"R........................R...........................R.........................R",
"R........................R...........................R.........................R",
"RRRRRRRRRRRRRRRRRRRRRRRRRRRRRRRRRRRRRRRRRRRRRRRRRRRRRRRRRRRRRRRRRRRRRRRRRRRRRRRR",
"R........................R...........................R.........................R",
"R........................R...........................R.........................R",
"R........................R...........................R.........................R",
"R........................R...........................R.........................R",
"R........................R...........................R.........................R",
"R........................R...........................R.........................R",
"R........................R...........................R.........................R",
"R........................R...........................R.........................R",
"R........................R...........................R.........................R",
"R........................R...........................R.........................R",
"RRRRRRRRRRRRRRRRRRRRRRRRRRRRRRRRRRRRRRRRRRRRRRRRRRRRRRRRRRRRRRRRRRRRRRRRRRRRRRRR",
"R........................R...........................R.........................R",
"R........................R...........................R.........................R",
"R........................R...........................R.........................R",
"R........................R...........................R.........................R",
"R........................R...........................R.........................R",
"R........................R...........................R.........................R",
"R........................R...........................R.........................R",
"R........................R...........................R.........................R",
"RRRRRRRRRRRRRRRRRRRRRRRRRRRRRRRRRRRRRRRRRRRRRRRRRRRRRRRRRRRRRRRRRRRRRRRRRRRRRRRR"
};
