/* XPM */
static char *laser_door[] = {
/* width height num_colors chars_per_pixel */
"80 42 2 1",
/* colors */
"R c #FF0000",
". c None",
/* pixels */
"RRRRRRRRRRRRRRRRRRRRRRRRRRRRRRRRRRRRRRRRRRRRRRRRRRRRRRRRRRRRRRRRRRRRRRRRRRRRRRRR",
"R........................R...........................R.........................R",
"R........................R...........................R.........................R",
"R........................R...........................R.........................R",
"R........................R...........................R.........................R",
"R........................R...........................R.........................R",
"R........................R...........................R.........................R",
"R........................R...........................R.........................R",
"R........................R...........................R.........................R",
"R........................R...........................R.........................R",
"RRRRRRRRRRRRRRRRRRRRRRRRRRRRRRRRRRRRRRRRRRRRRRRRRRRRRRRRRRRRRRRRRRRRRRRRRRRRRRRR",
"R........................R...........................R.........................R",
"R........................R...........................R.........................R",
"R........................R...........................R.........................R",
"R........................R...........................R.........................R",
"R........................R...........................R.........................R",
"R........................R...........................R.........................R",
"R........................R...........................R.........................R",
"R........................R...........................R.........................R",
"R........................R...........................R.........................R",
"R........................R...........................R.........................R",
"RRRRRRRRRRRRRRRRRRRRRRRRRRRRRRRRRRRRRRRRRRRRRRRRRRRRRRRRRRRRRRRRRRRRRRRRRRRRRRRR",
"R........................R...........................R.........................R",
"R........................R...........................R.........................R",
"R........................R...........................R.........................R",
"R........................R...........................R.........................R",
"R........................R...........................R.........................R",
"R........................R...........................R.........................R",
"R........................R...........................R.........................R",
"R........................R...........................R.........................R",
"R........................R...........................R.........................R",
"R........................R...........................R.........................R",
"RRRRRRRRRRRRRRRRRRRRRRRRRRRRRRRRRRRRRRRRRRRRRRRRRRRRRRRRRRRRRRRRRRRRRRRRRRRRRRRR",
"R........................R...........................R.........................R",
"R........................R...........................R.........................R",
"R........................R...........................R.........................R",
"R........................R...........................R.........................R",
"R........................R...........................R.........................R",
"R........................R...........................R.........................R",
"R........................R...........................R.........................R",
"R........................R...........................R.........................R",
"RRRRRRRRRRRRRRRRRRRRRRRRRRRRRRRRRRRRRRRRRRRRRRRRRRRRRRRRRRRRRRRRRRRRRRRRRRRRRRRR"
};
