/* XPM */
static char *laser_door_xpm[] = {
/* width height num_colors chars_per_pixel */
"20 40 3 1",
/* colors */
"R c #FF0000",
". c None",
"# c #000000",
/* pixels */
"....................",
"....................",
"....................",
"....................",
"....................",
"....................",
"....................",
"....................",
"....................",
"....................",
"RRRRRRRRRRRRRRRRRRRR",
"....................",
"....................",
"....................",
"....................",
"....................",
"....................",
"....................",
"....................",
"....................",
"....................",
"....................",
"....................",
"....................",
"....................",
"....................",
"....................",
"....................",
"....................",
"....................",
"RRRRRRRRRRRRRRRRRRRR",
"....................",
"....................",
"....................",
"....................",
"....................",
"....................",
"....................",
"....................",
"...................."
};
